<svg width="18" height="18" viewBox="0 0 18 18" fill="none" xmlns="http://www.w3.org/2000/svg">
<path fill-rule="evenodd" clip-rule="evenodd" d="M3.53492 0.00489484C2.93638 0.0556143 2.04684 0.318482 1.73111 0.537961C1.22224 0.891658 0.520048 1.99081 0.223604 2.89767C0.0540856 3.41628 -0.00162137 3.77847 3.57338e-05 4.35165C0.00239799 5.18142 0.116914 5.65118 0.704727 7.24185C1.26617 8.76125 1.52418 9.29883 2.15113 10.2554C3.42869 12.2047 5.73375 14.5151 7.71293 15.83C8.63763 16.4444 9.24571 16.7367 10.7627 17.2962C12.3948 17.8982 12.7997 17.9974 13.6362 17.9999C14.0868 18.0013 14.2745 17.9861 14.569 17.9242C15.3688 17.7561 16.1699 17.3728 16.933 16.7931C17.2368 16.5623 17.4157 16.3748 17.542 16.1548C17.7556 15.783 17.9896 14.8362 17.9984 14.3083C18.0038 13.9835 18.0011 13.9712 17.9003 13.8648C17.749 13.7052 17.5834 13.5992 16.9151 13.2344C15.6722 12.5559 14.8595 12.0876 14.5396 11.8656C14.1829 11.618 13.8763 11.4736 13.7048 11.4723C13.4109 11.47 12.9843 11.8329 12.3386 12.6345C11.8405 13.2529 11.4221 13.665 11.212 13.7442C11.0475 13.8062 11.0397 13.806 10.8065 13.7304C10.5404 13.6441 9.44248 13.005 8.75302 12.535C7.45178 11.6479 6.35738 10.5539 5.46759 9.25089C5.00519 8.57377 4.36026 7.46574 4.27275 7.19804C4.19684 6.9658 4.19645 6.95664 4.25727 6.79743C4.34115 6.57795 4.67814 6.22785 5.24282 5.77363C6.10311 5.08164 6.5318 4.59679 6.5318 4.31577C6.5318 4.14338 6.41968 3.89313 6.18832 3.54902C5.9069 3.13051 5.62082 2.64086 5.05109 1.60244C4.22984 0.105664 4.17766 0.0351715 3.86986 0.00736209C3.7729 -0.00137901 3.62218 -0.00250689 3.53492 0.00489484Z" fill="white"/>
</svg>
