<svg width="18" height="12" viewBox="0 0 18 12" fill="none" xmlns="http://www.w3.org/2000/svg">
<path fill-rule="evenodd" clip-rule="evenodd" d="M0.576374 0.0859686C0.479632 0.133246 0.354862 0.218629 0.299089 0.275666C0.208993 0.367911 0.203894 0.384221 0.253162 0.422499C0.283686 0.446155 0.931518 0.978692 1.69283 1.60589C5.34055 4.61104 8.49369 7.16265 8.67765 7.25824C8.85341 7.34955 9.15162 7.34955 9.32766 7.25824C9.49199 7.17299 9.93966 6.81522 12.7114 4.5539C15.1232 2.58627 16.3804 1.55354 17.2412 0.833031L17.7961 0.3686L17.716 0.28408C17.6719 0.237595 17.5567 0.154799 17.46 0.100107L17.2842 0.0006551L9.01823 0.000310449L0.752311 0L0.576374 0.0859686ZM0 6.20079C0 8.89275 0.0098817 11.1437 0.0219789 11.203C0.0340761 11.2623 0.0538395 11.3106 0.0659366 11.3104C0.121077 11.3096 0.724775 10.8278 2.92699 9.02696C5.90128 6.5948 6.15999 6.37921 6.14705 6.34379C6.14125 6.32793 5.97034 6.17772 5.76726 6.00998C4.7659 5.18295 0.0822889 1.35505 0.0439578 1.33236C0.00886188 1.31157 0 2.29433 0 6.20079ZM15.2973 3.50206C11.9932 6.20713 11.8712 6.30796 11.858 6.34379C11.8452 6.37903 12.0925 6.58518 15.0726 9.02279C17.289 10.8358 17.8833 11.3096 17.9414 11.3104C17.9547 11.3106 17.9751 11.2448 17.9867 11.1642C17.9983 11.0836 18.0033 8.83109 17.9977 6.15861L17.9875 1.29957L15.2973 3.50206ZM6.57467 7.11413C5.67284 7.84095 2.38237 10.5388 1.71059 11.1022C1.26852 11.473 0.858724 11.8165 0.799961 11.8657L0.693126 11.9551L0.914392 11.9778C1.20314 12.0074 16.9236 12.0074 17.1438 11.9778L17.3121 11.9552L17.2052 11.8658C17.1464 11.8165 16.7366 11.4729 16.2945 11.1021C15.1447 10.1378 11.2568 6.96499 11.1976 6.94268C11.1493 6.9245 10.8726 7.13258 9.88845 7.92706C9.3463 8.36473 9.29052 8.39425 9.00255 8.3957C8.70793 8.39721 8.66474 8.37163 7.85026 7.7135C7.49388 7.42552 7.1201 7.1253 7.01963 7.0463L6.83698 6.90271L6.57467 7.11413Z" fill="white"/>
</svg>
