<svg width="271" height="272" viewBox="0 0 271 272" fill="none" xmlns="http://www.w3.org/2000/svg">
<circle cx="135.5" cy="135.502" r="126.5" fill="#086CE0" stroke="url(#paint0_linear_218_3)" stroke-width="18"/>
<path fill-rule="evenodd" clip-rule="evenodd" d="M131.484 74.8479C127.216 75.7372 126.704 76.0099 126.704 77.3965C126.704 78.3385 127.467 79.0679 128.437 79.0548C128.864 79.049 130.719 78.7268 132.56 78.3387L135.906 77.6329L150.47 80.5743C160.764 82.6534 164.863 83.5698 164.451 83.6999C164.13 83.8014 157.62 85.1458 149.984 86.6878L136.101 89.4914L126.683 87.5659L117.264 85.6404L127.024 85.5624L136.784 85.4844L137.36 84.8047C138.068 83.9712 138.093 83.2074 137.442 82.3681L136.946 81.7298L126.986 81.7133C117.212 81.6973 116.26 81.6072 119.377 80.9927C120.989 80.6749 121.686 80.0935 121.686 79.0652C121.686 78.104 120.934 77.3693 119.953 77.3701C119.526 77.3705 114.15 78.3877 108.007 79.6303C99.826 81.2853 96.7093 82.0081 96.3563 82.3317C95.8908 82.7588 95.8745 83.0589 95.8745 91.2089V99.6439L95.3222 100.011C94.2068 100.751 93.8063 102.003 92.8869 107.617L91.9995 113.035L92.4689 113.673L92.9383 114.31L97.6278 114.376C102.061 114.438 102.344 114.415 102.8 113.952C103.437 113.306 103.424 113.061 102.439 107.116C101.56 101.816 101.304 100.987 100.301 100.187L99.6984 99.7064V92.7771C99.6984 88.966 99.734 85.8478 99.7775 85.8478C99.892 85.8478 108.083 87.5126 108.714 87.664L109.246 87.7917L109.312 100.578L109.378 113.365L112.305 117.387C114.941 121.009 115.233 121.51 115.233 122.415C115.233 122.967 115.404 124.181 115.612 125.111C116.471 128.937 118.187 132.166 120.881 135.025L122.642 136.892V140.663V144.434L121.387 144.807C114.072 146.983 100.174 151.595 98.9585 152.25C96.1687 153.753 94.1227 156.223 92.7865 159.7L92.1702 161.304L92.1001 179.048L92.0303 196.792L92.6271 197.397C93.3403 198.12 94.1813 198.171 94.9518 197.539L95.516 197.076L95.6355 179.432C95.7529 162.094 95.7639 161.766 96.2669 160.524C97.4397 157.628 99.7572 155.465 102.69 154.53L104.061 154.093L111.439 157.077L118.818 160.06V171.243C118.818 178.428 118.907 182.687 119.069 183.156C119.305 183.842 120.121 184.437 120.828 184.437C121.001 184.437 121.427 184.211 121.773 183.935L122.403 183.433V172.55C122.403 166.564 122.483 161.667 122.582 161.666C122.878 161.665 133.731 166.084 134.053 166.337C134.287 166.52 134.352 169.902 134.352 181.792V197.014L134.875 197.508C135.544 198.139 136.507 198.139 137.175 197.508L137.698 197.014V181.792C137.698 169.902 137.764 166.52 137.997 166.337C138.32 166.084 149.172 161.665 149.468 161.666C149.567 161.667 149.648 166.564 149.648 172.55V183.433L150.277 183.935C150.624 184.211 151.049 184.437 151.222 184.437C151.929 184.437 152.746 183.842 152.982 183.156C153.143 182.687 153.232 178.428 153.232 171.245V160.062L160.526 157.11C164.537 155.486 167.987 154.158 168.19 154.158C168.394 154.158 169.349 154.49 170.312 154.896C173.214 156.121 175.262 158.493 176.044 161.536C176.349 162.724 176.415 164.69 176.415 172.629V182.279L177.028 182.9C177.525 183.404 177.785 183.493 178.399 183.368C179.929 183.058 179.873 183.435 179.948 172.824C180.024 161.921 179.921 160.908 178.419 157.817C177.308 155.527 175.224 153.383 172.949 152.185C171.905 151.635 167.168 150.006 160.342 147.848L149.409 144.391V140.641V136.892L151.182 135.01C152.157 133.976 153.45 132.274 154.056 131.229C155.385 128.933 156.566 125.339 156.751 123.031L156.887 121.335L159.78 117.35L162.673 113.365L162.739 100.589C162.8 88.7369 162.834 87.8055 163.217 87.6928C163.443 87.626 166.209 87.0533 169.362 86.4204C174.202 85.4488 175.183 85.1799 175.662 84.6947C176.113 84.2376 176.198 83.9629 176.077 83.352C175.994 82.9296 175.776 82.432 175.593 82.2465C175.289 81.9383 136.685 73.9429 135.79 74.0023C135.591 74.0156 133.653 74.3962 131.484 74.8479ZM124.972 90.9528L136.025 93.1865L147.078 90.9528C153.158 89.7245 158.374 88.6611 158.67 88.5896L159.207 88.4598V94.7842V101.108H136.025H112.843V94.7842V88.4598L113.381 88.5896C113.677 88.6611 118.893 89.7245 124.972 90.9528ZM98.6645 106.214C98.9561 108.002 99.2515 109.765 99.321 110.132L99.4474 110.798H97.7805C96.4115 110.798 96.1135 110.729 96.1135 110.41C96.1135 109.646 97.0994 103.883 97.3245 103.33C97.7819 102.207 98.1356 102.968 98.6645 106.214ZM116.815 105.116C116.566 105.775 115.92 109.935 115.63 112.752L115.349 115.481L114.096 113.74L112.843 111.999V108.37V104.742H114.9C116.657 104.742 116.936 104.796 116.815 105.116ZM151.578 105.396C151.98 106.468 152.7 111.182 152.977 114.552C153.4 119.715 153.33 122.992 152.749 125.083C150.59 132.85 143.954 137.958 136.025 137.958C129.299 137.958 123.492 134.346 120.593 128.36C119.144 125.367 118.796 123.833 118.806 120.487C118.822 115.401 119.705 107.443 120.483 105.367L120.718 104.742H136.025H151.332L151.578 105.396ZM159.207 108.37V111.999L157.954 113.74L156.701 115.481L156.42 112.752C156.13 109.935 155.484 105.775 155.235 105.116C155.114 104.796 155.393 104.742 157.15 104.742H159.207V108.37ZM125.364 111.608C124.721 112.168 124.673 112.331 124.674 113.949C124.676 115.482 124.743 115.743 125.239 116.149C125.969 116.749 127.057 116.739 127.66 116.127C128.319 115.459 128.362 112.288 127.72 111.702C126.933 110.983 126.117 110.95 125.364 111.608ZM145.107 111.212C144.126 111.578 143.912 112.052 143.912 113.863C143.912 115.32 143.999 115.73 144.39 116.127C144.993 116.739 146.081 116.749 146.811 116.149C147.307 115.743 147.374 115.482 147.376 113.949C147.377 112.344 147.326 112.165 146.707 111.625C146.031 111.036 145.764 110.967 145.107 111.212ZM131.843 126.007C130.998 126.186 130.528 126.811 130.528 127.754C130.528 128.838 130.861 129.173 132.918 130.158C135.445 131.369 137.92 131.141 140.446 129.464C141.247 128.933 141.415 128.679 141.478 127.905C141.628 126.074 140.122 125.513 138.141 126.661C136.791 127.443 135.29 127.461 133.994 126.71C132.756 125.993 132.423 125.884 131.843 126.007ZM128.855 140.349C131.542 141.353 133.612 141.645 137.13 141.512C139.871 141.409 140.468 141.303 142.597 140.545C143.912 140.076 145.176 139.611 145.405 139.511C145.793 139.343 145.824 139.594 145.824 142.951C145.824 146.096 145.879 146.623 146.242 146.95C146.472 147.157 147.783 147.675 149.156 148.102C150.744 148.596 151.526 148.944 151.307 149.058C151.117 149.157 147.601 150.203 143.494 151.383L136.025 153.528L128.557 151.383C124.449 150.203 120.944 149.164 120.769 149.072C120.584 148.977 121.49 148.574 122.92 148.117C124.278 147.683 125.578 147.158 125.808 146.95C126.171 146.623 126.226 146.096 126.226 142.951C126.226 139.597 126.257 139.342 126.645 139.504C126.875 139.6 127.869 139.98 128.855 140.349ZM125.181 154.148L136.07 157.287L146.924 154.148C152.894 152.421 157.911 151.011 158.074 151.013C158.237 151.016 159.331 151.324 160.505 151.698L162.639 152.378L149.332 157.774L136.025 163.17L123.299 158.021C116.299 155.189 110.358 152.762 110.095 152.627C109.688 152.417 109.896 152.284 111.529 151.714C112.58 151.347 113.632 151.038 113.866 151.028C114.1 151.017 119.191 152.421 125.181 154.148ZM177.044 189.057L176.415 189.559V193.186C176.415 196.714 176.431 196.829 177.001 197.407C177.324 197.734 177.867 198.002 178.207 198.002C178.548 198.002 179.09 197.734 179.413 197.407C179.982 196.831 180 196.708 180 193.278C180 189.849 179.982 189.726 179.413 189.15C178.696 188.423 177.88 188.391 177.044 189.057Z" fill="white"/>
<defs>
<linearGradient id="paint0_linear_218_3" x1="135.5" y1="18.002" x2="135.5" y2="253.002" gradientUnits="userSpaceOnUse">
<stop stop-color="#082939"/>
<stop offset="1" stop-color="#082739"/>
</linearGradient>
</defs>
</svg>
