<svg width="271" height="272" viewBox="0 0 271 272" fill="none" xmlns="http://www.w3.org/2000/svg">
<circle cx="135.5" cy="135.502" r="126.5" fill="#086CE0" stroke="url(#paint0_linear_218_4)" stroke-width="18"/>
<path fill-rule="evenodd" clip-rule="evenodd" d="M115.862 64.5076L114.851 65.016L114.773 70.748C114.73 73.9004 114.806 77.1918 114.941 78.0619L115.188 79.644L113.774 80.8701C110.744 83.4998 109.352 86.8165 109.565 90.9038C109.684 93.18 109.798 93.5136 112.202 98.6388L114.715 103.995L114.711 106.806C114.701 113.757 116.88 118.963 121.683 123.456L123.948 125.577V129.794V134.011L118.245 134.953C110.9 136.165 109.561 136.518 106.766 137.974C103.992 139.418 100.845 142.319 100.845 143.431C100.845 144.784 101.593 145.447 103.118 145.447C104.285 145.447 104.619 145.309 105.34 144.535C106.514 143.272 109.278 141.497 110.899 140.965C111.643 140.72 115.291 139.99 119.005 139.343L125.758 138.165L126.732 138.913C131.559 142.622 138.947 142.801 144.102 139.333L145.831 138.17L152.433 139.338C161.206 140.891 162.207 141.248 165.349 143.946C166.28 144.746 167.366 145.482 167.762 145.582C169.187 145.943 170.656 144.226 170.266 142.657C170.05 141.793 167.602 139.547 165.435 138.227C162.762 136.599 160.199 135.893 153.409 134.917L147.051 134.003V129.79V125.577L149.316 123.456C154.172 118.913 156.292 113.785 156.292 106.583V103.55L157.991 100.137C160.503 95.0885 161.174 93.3292 161.507 90.9163C162.096 86.6478 160.978 83.2359 158.129 80.6054C156.863 79.4378 156.291 78.6948 156.288 78.2175C156.278 76.096 154.833 72.729 153.248 71.1326C151.691 69.5641 149.736 69.7692 149.114 71.5657C148.775 72.5449 149.022 73.5339 149.761 74.1511C150.325 74.6224 151.248 76.1309 151.513 77.0152C151.692 77.6087 151.614 77.6698 150.68 77.6698C149.326 77.6698 148.495 78.5049 148.495 79.8645C148.495 81.2928 149.544 82.3219 151.009 82.3304C152.498 82.3391 154.235 83.1844 155.32 84.4294C157.52 86.9532 157.756 90.4625 155.981 94.2403L154.96 96.4121L154.268 94.9675C153.289 92.924 151.167 90.9378 149.15 90.178C145.764 88.9019 142.158 89.5235 139.297 91.8768C136.94 93.8156 135.95 94.2516 133.922 94.2441C131.873 94.2365 130.444 93.6556 127.801 91.7555C124.564 89.4287 122.06 85.8961 120.602 81.5968C119.922 79.5899 119.795 78.6739 119.678 74.9403L119.543 70.6113L120.807 71.4011C125.917 74.5939 132.25 75.9122 138.408 75.0648C141.777 74.6009 144.782 73.7404 145.246 73.1066C146.148 71.8738 145.217 69.5248 143.826 69.5248C143.494 69.5248 142.297 69.871 141.166 70.2942C139.493 70.9202 138.458 71.0892 135.616 71.2007C129.979 71.4214 127.806 70.7178 121.837 66.7372C119.583 65.2342 117.544 64.0035 117.306 64.0017C117.068 64.0003 116.418 64.2277 115.862 64.5076ZM117.446 86.7601C118.03 87.9198 118.822 89.2856 119.206 89.7949C119.591 90.3043 119.905 90.8078 119.905 90.914C119.905 91.0201 119.406 91.6775 118.797 92.3754C118.187 93.0729 117.375 94.2382 116.992 94.9652C116.61 95.6921 116.218 96.2867 116.122 96.2867C116.026 96.2867 115.534 95.3823 115.028 94.2772C113.894 91.7988 113.655 89.9241 114.232 88.0455C114.655 86.671 115.82 84.6569 116.195 84.6531C116.299 84.652 116.862 85.6003 117.446 86.7601ZM147.072 94.2912C149.065 94.8927 149.795 96.0109 150.786 99.9787C152.813 108.095 151.462 114.82 146.874 119.452C139.3 127.099 126.183 125.107 121.253 115.56C119.825 112.796 119.338 110.338 119.336 105.886C119.334 100.796 120.166 97.9933 122.449 95.405L123.515 94.1966L124.67 95.1225C125.305 95.6316 126.605 96.4842 127.558 97.0171C132.642 99.8597 137.297 99.4809 141.617 95.8725C143.843 94.0131 145.02 93.6722 147.072 94.2912ZM135.5 128.41C137.952 128.41 139.642 128.259 140.77 127.939L142.43 127.467V131.061V134.654L141.429 135.424C140.16 136.399 137.308 137.302 135.5 137.302C133.691 137.302 130.839 136.399 129.57 135.424L128.569 134.654V131.061V127.467L130.229 127.939C131.357 128.259 133.047 128.41 135.5 128.41ZM93.796 147.806C91.3323 148.393 88.7633 150.869 87.9622 153.428C87.5019 154.899 87.5371 155.403 89.4073 174.262C90.4617 184.892 91.3222 193.687 91.3199 193.807C91.3176 193.928 90.6601 194.026 89.8587 194.026C88.6764 194.026 88.2605 194.168 87.6547 194.778C86.9734 195.464 86.9217 195.681 87.0635 197.257C87.3722 200.685 88.9738 203.605 91.6731 205.66C94.2592 207.629 95.0441 207.796 102.301 207.922C108.442 208.028 108.851 208.002 109.514 207.461C110.497 206.659 110.512 204.676 109.542 203.885C108.932 203.386 108.331 203.334 103.229 203.334C96.918 203.334 95.9234 203.15 94.1936 201.658C93.199 200.801 92.1819 199.376 92.1819 198.84C92.1819 198.752 111.74 198.68 135.644 198.68C159.548 198.68 179.106 198.791 179.106 198.927C179.106 199.389 177.428 201.51 176.605 202.088C174.816 203.343 175.05 203.334 144.973 203.334H116.125L115.416 204.048C114.475 204.996 114.478 206.33 115.422 207.281L116.138 208.002L145.672 207.922C174.349 207.845 175.247 207.826 176.589 207.267C180.735 205.54 183.533 201.727 183.935 197.257C184.077 195.681 184.026 195.464 183.344 194.778C182.733 194.162 182.326 194.026 181.101 194.026H179.604L179.779 192.498C179.875 191.659 180.04 189.903 180.147 188.598C180.333 186.31 180.313 186.197 179.592 185.471C178.428 184.299 176.532 184.648 175.969 186.137C175.732 186.763 175.059 192.348 175.062 193.662C175.063 193.951 166.958 194.026 135.5 194.026C104.043 194.026 95.9356 193.951 95.9338 193.662C95.9324 193.462 95.1001 184.959 94.0844 174.766C92.1759 155.611 92.1418 154.762 93.2386 153.541C94.5621 152.068 92.4557 152.138 135.587 152.138H175.844L176.825 152.796C177.365 153.158 178.037 153.928 178.32 154.508C178.819 155.534 178.806 155.828 177.821 165.848C177.264 171.506 176.738 176.634 176.652 177.243C176.517 178.192 176.616 178.473 177.345 179.207C178.368 180.237 179.377 180.304 180.397 179.408C181.133 178.762 181.157 178.61 182.293 167.2C183.521 154.877 183.521 154.291 182.293 151.867C181.603 150.505 179.975 149.043 178.254 148.241L176.94 147.629L135.933 147.583C111.672 147.556 94.4642 147.648 93.796 147.806ZM97.2227 157.506C96.3497 158.385 96.3497 158.208 97.2305 166.973C97.9212 173.847 97.9729 174.123 98.6903 174.754C99.7134 175.655 100.717 175.583 101.757 174.535C102.43 173.857 102.589 173.484 102.47 172.863C102.386 172.423 102.025 169 101.67 165.256C101.075 159 100.967 158.381 100.331 157.62C99.4449 156.559 98.2071 156.514 97.2227 157.506ZM99.6381 180.51C99.2121 180.743 98.7815 181.193 98.6813 181.512C98.4685 182.188 98.7575 185.837 99.148 187.397C99.6274 189.314 101.324 189.93 102.741 188.702C103.586 187.97 103.675 187.157 103.285 183.699C102.912 180.386 101.739 179.361 99.6381 180.51Z" fill="white"/>
<path d="M127 106.667C127 104.529 127.055 104.338 127.752 104.084C128.167 103.933 128.335 103.975 128.76 104.338L129.183 104.699V106.65C129.183 108.46 129.159 108.625 128.853 108.93C128.447 109.332 127.718 109.358 127.303 108.985C127.027 108.738 127 108.528 127 106.667Z" fill="white"/>
<path d="M143.112 104.851L143.567 104.399C143.933 104.037 144.104 103.966 144.433 104.044C145.252 104.236 145.371 104.568 145.371 106.667C145.371 108.267 145.328 108.63 145.106 108.901C144.709 109.388 143.908 109.363 143.463 108.849C143.137 108.473 143.112 108.314 143.112 106.648V104.851Z" fill="white"/>
<path d="M132.564 116.204C131.538 114.916 131.223 113.222 131.887 112.563C132.09 112.361 132.432 112.196 132.646 112.196C133.194 112.196 133.776 112.818 133.776 113.402C133.776 113.661 133.926 114.138 134.109 114.462C134.633 115.387 135.363 115.724 136.694 115.655C137.338 115.622 138.391 114.525 138.512 113.76C138.716 112.473 139.41 111.904 140.223 112.355C141.076 112.828 140.954 114.455 139.954 115.952C138.305 118.424 134.437 118.556 132.564 116.204Z" fill="white"/>
<defs>
<linearGradient id="paint0_linear_218_4" x1="135.5" y1="18.0017" x2="135.5" y2="253.002" gradientUnits="userSpaceOnUse">
<stop stop-color="#082739"/>
<stop offset="1" stop-color="#09293C"/>
</linearGradient>
</defs>
</svg>
