<svg width="271" height="272" viewBox="0 0 271 272" fill="none" xmlns="http://www.w3.org/2000/svg">
<circle cx="135.5" cy="135.501" r="126.5" fill="#086CE0" stroke="url(#paint0_linear_217_2)" stroke-width="18"/>
<path fill-rule="evenodd" clip-rule="evenodd" d="M115.631 75.2063C111.114 75.8866 106.338 78.1757 103.227 81.1513C101.905 82.415 101.685 83.4132 102.54 84.2617C103.418 85.1331 104.287 84.8862 106.324 83.1861C108.314 81.526 111.552 79.7943 113.95 79.1077C115.205 78.7485 116.891 78.6834 127.005 78.6035C134.608 78.5437 139.198 78.6012 140.295 78.7702C146.181 79.6764 151.14 83.2652 153.83 88.5661C154.828 90.532 155.252 91.99 155.861 95.549C156.66 100.209 157.939 103.505 159.878 105.892L160.701 106.905H159.95C159.537 106.905 158.453 106.783 157.541 106.633C156.112 106.399 155.802 106.414 155.294 106.744C154.515 107.251 154.349 108.178 154.762 109.706L155.1 110.957H149.138C142.87 110.957 141.056 110.761 138.212 109.774C133.921 108.285 130.055 104.683 127.229 99.5414C126.731 98.6342 125.96 98.3077 125.055 98.6206C123.916 99.0146 123.797 99.5214 123.811 103.926C123.822 107.403 123.896 108.193 124.335 109.496L124.847 111.015L123.361 110.85C117.39 110.188 111.876 105.836 109.634 100.014C108.906 98.1232 108.632 97.825 107.593 97.7957C106.585 97.7674 105.753 98.5897 103.735 101.61C102.047 104.137 100.881 106.601 100.11 109.272C99.8661 110.115 99.5728 110.898 99.4578 111.012C99.3391 111.13 99.1811 110.467 99.0922 109.48C98.961 108.02 98.8366 107.652 98.3221 107.202C97.7668 106.717 97.5501 106.68 96.0409 106.82C95.1239 106.904 94.3735 106.892 94.3735 106.792C94.3735 106.692 94.7165 106.223 95.1359 105.749C96.2393 104.502 97.9301 100.797 98.4979 98.3835C99.5046 94.1015 100.076 91.9759 100.516 90.8659C100.929 89.8282 100.937 89.6647 100.607 89.0814C100.104 88.1926 99.0927 87.868 98.2604 88.328C97.4125 88.7966 96.267 91.6434 95.581 94.9875C94.9346 98.1385 94.0876 100.721 93.1931 102.269C92.5504 103.38 92.16 103.777 89.8131 105.698C89.0901 106.29 88.9796 106.518 89.0021 107.371C89.0197 108.034 89.2015 108.542 89.5556 108.916C90.1313 109.524 92.0289 110.121 94.1933 110.374L95.5745 110.535V111.442C95.5745 112.213 95.4544 112.422 94.7684 112.843C93.6786 113.511 91.8829 115.448 91.2997 116.584C89.6752 119.748 89.6663 123.606 91.2764 126.737C92.5247 129.166 95.9516 131.673 98.5515 132.059L99.599 132.215L100.024 133.802C100.675 136.229 102.051 139.225 103.601 141.591C105.324 144.222 108.97 147.894 111.444 149.491L113.262 150.665L111.91 151.06C110.074 151.597 108.713 152.855 107.104 155.5L105.783 157.672L103.621 157.68C100.154 157.693 98.0689 158.054 96.1034 158.98C94.0403 159.952 91.8574 161.977 90.9454 163.764C89.5551 166.488 89.5695 166.3 89.5695 181.773V196.013L90.2024 196.507L90.8353 197.001H136.321C181.291 197.001 181.811 196.996 182.28 196.53C182.949 195.867 183.066 195.197 182.97 192.581C182.891 190.409 182.851 190.255 182.213 189.711C181.387 189.006 180.861 188.987 180.037 189.63C179.462 190.078 179.404 190.275 179.404 191.775V193.426H166.794H154.183V181.506V169.587L166.733 169.648L179.284 169.71L179.404 176.701C179.517 183.272 179.552 183.713 179.99 184.031C180.642 184.503 181.649 184.452 182.32 183.913L182.887 183.457V176.107C182.887 168.967 182.872 168.733 182.363 167.923C182.075 167.464 181.481 166.874 181.042 166.612C180.296 166.166 179.743 166.13 172.438 166.059L164.632 165.983L163.94 164.457C162.892 162.144 161.039 160.261 158.669 159.103C156.484 158.035 154.627 157.693 150.933 157.681L148.764 157.673L147.481 155.523C145.918 152.904 144.508 151.603 142.639 151.057L141.274 150.657L143.012 149.525C148.554 145.915 153.021 139.65 154.665 133.183C154.874 132.358 155.025 132.17 155.476 132.17C156.281 132.17 158.53 131.359 159.613 130.678C160.92 129.856 162.681 127.921 163.378 126.541C165.65 122.043 164.423 116.397 160.503 113.304C160 112.907 159.468 112.512 159.321 112.425C159.175 112.339 158.985 111.889 158.9 111.426L158.745 110.584L160.997 110.318C164.876 109.861 166.242 108.864 165.847 106.779C165.716 106.084 165.451 105.779 164.39 105.106C161.756 103.434 160.269 100.254 159.219 94.0427C158.948 92.4426 158.419 90.2953 158.042 89.2707C155.828 83.2504 150.854 78.3645 144.784 76.246C141.397 75.0638 140.286 74.9811 128.121 75.0042C121.912 75.0159 116.292 75.107 115.631 75.2063ZM108.597 105.593C112.228 111.084 118.758 114.523 125.563 114.53C127.252 114.532 127.364 114.497 128.145 113.722C129.108 112.767 129.188 112 128.488 110.431C128.228 109.847 127.858 108.701 127.666 107.885L127.317 106.402L129.04 108.026C132.149 110.955 135.376 112.76 139.475 113.861C141.003 114.271 142.255 114.38 146.532 114.472L151.731 114.584L151.876 115.303C152.118 116.502 152.039 126.919 151.771 129.078C151.42 131.92 150.714 134.321 149.486 136.856C143.585 149.039 128.88 154.125 116.553 148.246C110.008 145.124 105.285 139.407 103.314 132.219C102.688 129.938 102.679 129.795 102.67 121.921C102.663 116.178 102.749 113.535 102.976 112.506C103.65 109.452 104.646 106.953 106.339 104.065C106.889 103.128 106.985 103.059 107.21 103.446C107.35 103.685 107.974 104.651 108.597 105.593ZM98.8837 125.128L98.8172 128.572L97.8408 128.138C95.3826 127.046 93.8926 124.836 93.7055 122.007C93.6077 120.528 93.6771 120.123 94.2366 118.909C95.0453 117.152 96.0796 116.061 97.6162 115.342L98.8172 114.78L98.8837 118.231C98.9202 120.13 98.9202 123.233 98.8837 125.128ZM157.186 115.423C158.234 115.937 159.673 117.368 160.246 118.465C160.938 119.79 161.093 122.438 160.57 124.002C159.928 125.918 157.899 127.886 155.985 128.448C155.512 128.587 155.504 128.477 155.504 121.683C155.504 113.945 155.349 114.522 157.186 115.423ZM113.83 119.468C112.717 119.874 112.629 120.178 112.629 123.589C112.629 126.557 112.672 126.892 113.112 127.287C113.775 127.882 114.937 127.84 115.585 127.198C116.073 126.713 116.112 126.449 116.112 123.562V120.45L115.438 119.874C114.759 119.295 114.49 119.227 113.83 119.468ZM139.057 119.972L138.33 120.693V123.558C138.33 126.216 138.371 126.47 138.89 127.07C139.6 127.889 140.877 127.929 141.511 127.153C141.864 126.719 141.933 126.14 141.933 123.589C141.933 120.24 141.744 119.711 140.438 119.404C139.913 119.281 139.639 119.394 139.057 119.972ZM120.424 132.994C119.365 134.044 119.868 136.747 121.505 138.802C124.493 142.553 130.662 142.342 133.293 138.4C134.888 136.012 135.082 133.417 133.722 132.662C132.424 131.942 131.318 132.85 130.992 134.903C130.799 136.123 129.12 137.873 128.093 137.926C125.97 138.037 124.805 137.499 123.969 136.023C123.677 135.507 123.438 134.746 123.438 134.331C123.438 133.4 122.509 132.408 121.636 132.408C121.294 132.408 120.749 132.672 120.424 132.994ZM121.935 153.783C124.881 154.366 130.49 154.306 133.286 153.662C134.409 153.403 135.341 153.208 135.358 153.228C135.375 153.248 133.997 155.021 132.296 157.169L129.202 161.075V164.26V167.446H127.281H125.359V164.261V161.075L122.567 157.527C121.031 155.576 119.599 153.773 119.384 153.521C119.022 153.096 119.023 153.075 119.413 153.216C119.644 153.299 120.779 153.555 121.935 153.783ZM115.719 154.942C116.118 155.276 117.64 157.062 119.101 158.912L121.756 162.276V165.113C121.756 167.317 121.689 167.912 121.456 167.776C121.291 167.681 120.318 167.012 119.294 166.291L117.433 164.979V163.189C117.433 161.07 116.944 160.295 115.607 160.295C114.756 160.295 113.83 161.18 113.83 161.992C113.83 162.34 113.346 162.092 111.554 160.828C110.302 159.945 109.279 159.116 109.279 158.984C109.28 158.424 111.41 155.364 112.141 154.873C113.265 154.118 114.767 154.147 115.719 154.942ZM142.776 155.054C143.367 155.605 145.301 158.661 145.289 159.026C145.286 159.134 144.259 159.945 143.008 160.828C141.216 162.092 140.732 162.34 140.732 161.992C140.732 161.167 139.806 160.295 138.93 160.295C137.647 160.295 137.129 161.151 137.129 163.269V164.987L135.027 166.467L132.925 167.947L132.857 165.163L132.79 162.378L134.466 160.205C137.234 156.617 138.814 154.798 139.368 154.563C140.271 154.18 142.124 154.446 142.776 155.054ZM109.935 164.034L113.83 166.818L113.833 175.057C113.835 179.589 113.902 183.542 113.984 183.842C114.133 184.398 115.176 185.084 115.87 185.084C116.081 185.084 116.519 184.82 116.843 184.499L117.433 183.914V176.732C117.433 171.887 117.514 169.578 117.681 169.633C117.818 169.679 118.786 170.304 119.831 171.024L121.732 172.332L121.744 182.879L121.756 193.426H107.464H93.1725V180.564C93.1725 168.215 93.1919 167.65 93.6608 166.407C94.5582 164.027 96.9698 161.991 99.4712 161.502C100.036 161.391 101.745 161.289 103.269 161.275L106.04 161.249L109.935 164.034ZM156.452 161.928C157.105 162.218 158.004 162.731 158.45 163.068C159.255 163.678 160.668 165.426 160.668 165.813C160.668 165.925 157.719 166.016 154.114 166.016C147.79 166.016 147.522 166.035 146.502 166.552C145.92 166.847 145.221 167.391 144.95 167.761C144.467 168.417 144.453 168.746 144.389 180.93L144.322 193.426H138.561H132.8L132.863 182.897L132.925 172.368L135.027 170.859L137.129 169.35V176.594C137.129 183.318 137.161 183.879 137.578 184.39C138.203 185.155 139.658 185.155 140.283 184.39C140.703 183.875 140.732 183.289 140.732 175.325V166.811L144.635 164.021L148.538 161.23L151.901 161.316C154.73 161.388 155.453 161.485 156.452 161.928ZM150.58 181.508V193.426H149.259H147.938V181.508V169.591H149.259H150.58V181.508ZM129.202 182.224V193.426H127.281H125.359V182.224V171.021H127.281H129.202V182.224ZM159.227 173.345C157.918 173.994 157.547 174.997 157.546 177.881C157.546 180.743 157.873 181.752 159.033 182.461C159.793 182.927 160.138 182.945 166.992 182.884L174.157 182.819L174.979 181.929L175.801 181.039V177.969C175.801 175.217 175.749 174.833 175.299 174.266C174.275 172.974 173.982 172.928 166.745 172.928C160.869 172.929 159.967 172.979 159.227 173.345ZM172.198 177.933V179.363H166.673H161.149V177.933V176.503H166.673H172.198V177.933Z" fill="white"/>
<defs>
<linearGradient id="paint0_linear_217_2" x1="135.5" y1="18.0012" x2="135.5" y2="253.001" gradientUnits="userSpaceOnUse">
<stop stop-color="#09303E"/>
<stop offset="1" stop-color="#082B3A"/>
</linearGradient>
</defs>
</svg>
