<svg width="102" height="102" viewBox="0 0 102 102" fill="none" xmlns="http://www.w3.org/2000/svg">
<circle cx="51" cy="51" r="46" fill="#086CE0" stroke="white" stroke-width="10"/>
<path d="M40.5688 45.9713C41.3382 46.1379 41.9736 46.4231 42.4663 46.8709C42.9293 47.2851 43.3216 47.8219 43.6187 48.467C43.8395 48.9047 44.0993 49.6426 44.3737 50.6665L36.9554 52.6543C37.2684 53.6678 37.7369 54.4119 38.3469 54.911C38.9569 55.4101 39.7545 55.5277 40.7011 55.2741C41.5897 55.036 42.2075 54.5598 42.5932 53.8353C42.7898 53.41 42.9181 52.9615 42.9149 52.4861L44.5763 52.0409C44.636 52.4183 44.6095 52.8602 44.4826 53.3912C44.3557 53.9221 44.1836 54.3616 43.9328 54.7394C43.5651 55.3763 43.0156 55.8755 42.2946 56.2758C41.9148 56.4811 41.4667 56.6632 40.9644 56.7978C39.7087 57.1343 38.5026 56.9605 37.3848 56.2662C36.2722 55.5911 35.4863 54.4352 35.0463 52.7931C34.6114 51.1703 34.6986 49.7183 35.3181 48.4756C35.9182 47.2381 36.9183 46.4111 38.3478 46.0281C39.0626 45.8365 39.8047 45.8241 40.5688 45.9713ZM42.2534 49.7853C41.9987 49.0667 41.6837 48.5092 41.2942 48.1374C40.6324 47.4451 39.7317 47.2516 38.6498 47.5415C37.8578 47.7537 37.2979 48.2143 36.9019 48.9002C36.5356 49.6195 36.4374 50.4119 36.651 51.2864L42.2534 49.7853Z" fill="white"/>
<path d="M46.9389 45.5068C47.2666 44.7978 47.655 44.2382 48.1235 43.8228C48.5778 43.4319 49.1404 43.1362 49.7972 42.9602C51.2268 42.5772 52.3273 42.8206 53.0988 43.6906C53.5142 44.1591 53.8809 44.9097 54.1553 45.9336L55.8894 52.4053L54.1507 52.8712L52.4425 46.4961C52.282 45.8972 52.0509 45.4208 51.7735 45.081C51.318 44.5404 50.6698 44.3621 49.8778 44.5744C49.4721 44.6831 49.154 44.8097 48.9287 44.9736C48.5013 45.2331 48.1681 45.6122 47.9149 46.1356C47.7325 46.5365 47.6518 46.9308 47.6484 47.3044C47.6695 47.6922 47.7461 48.21 47.9221 48.8668L49.3404 54.1601L47.6404 54.6156L44.9331 44.512L46.5559 44.0772L46.9389 45.5068Z" fill="white"/>
<path d="M61.4174 40.5299C61.8028 40.6544 62.2192 40.8948 62.6615 41.2318L62.3199 39.9568L63.8847 39.5375L66.3486 48.7331C66.6903 50.0081 66.7856 51.0593 66.6011 51.9162C66.2538 53.4794 65.1213 54.5075 63.1508 55.0355C62.069 55.3254 61.0937 55.3175 60.2161 55.0558C59.3474 54.7502 58.7205 54.1106 58.3637 53.0882L60.0831 52.6275C60.2987 53.0459 60.5464 53.3522 60.8649 53.5361C61.3548 53.8189 62.0002 53.8323 62.8116 53.6149C64.1253 53.2629 64.8562 52.5908 65.0134 51.5548C65.1003 50.9518 64.9574 49.9548 64.5654 48.5691C64.3574 49.1838 64.0553 49.6789 63.6396 50.0595C63.2239 50.44 62.6368 50.7216 61.8447 50.9338C60.7629 51.2237 59.6934 51.0961 58.675 50.5408C57.6373 49.9906 56.8848 48.805 56.4085 47.0277C55.953 45.3277 56.0067 43.9053 56.5838 42.7361C57.1556 41.5476 58.0166 40.82 59.1951 40.5042C59.9871 40.292 60.7344 40.2988 61.4174 40.5299ZM62.1165 42.2889C61.4345 41.8298 60.7141 41.6915 59.9028 41.9089C58.705 42.2298 58.0437 43.0075 57.8996 44.247C57.8283 44.908 57.9246 45.7311 58.1834 46.697C58.4888 47.8368 58.9484 48.6247 59.5725 49.0994C60.1966 49.574 60.8977 49.7175 61.6704 49.5104C62.8875 49.1843 63.6067 48.3911 63.8139 47.1554C63.9187 46.4647 63.8573 45.6944 63.6347 44.8637C63.2982 43.608 62.8038 42.7673 62.1165 42.2889Z" fill="white"/>
</svg>
